<svg xmlns="http://www.w3.org/2000/svg" xmlns:xlink="http://www.w3.org/1999/xlink" width="500" zoomAndPan="magnify" viewBox="0 0 375 374.999991" height="500" preserveAspectRatio="xMidYMid meet" version="1.0"><defs><g/><clipPath id="006cc84222"><path d="M 0 249 L 250 249 L 250 315.75 L 0 315.75 Z M 0 249 " clip-rule="nonzero"/></clipPath><clipPath id="eaece7627d"><path d="M 7 37.5 L 375 37.5 L 375 264 L 7 264 Z M 7 37.5 " clip-rule="nonzero"/></clipPath><clipPath id="0a3bd7e70b"><rect x="0" width="79" y="0" height="23"/></clipPath></defs><path fill="#0070ae" d="M 162.792969 178.5 L 188.578125 178.5 L 188.578125 204.265625 L 162.792969 204.265625 Z M 162.792969 178.5 " fill-opacity="1" fill-rule="nonzero"/><path fill="#0070ae" d="M 193.925781 178.5 L 219.710938 178.5 L 219.710938 204.265625 L 193.925781 204.265625 Z M 193.925781 178.5 " fill-opacity="1" fill-rule="nonzero"/><path fill="#0070ae" d="M 162.792969 147.410156 L 188.578125 147.410156 L 188.578125 173.179688 L 162.792969 173.179688 Z M 162.792969 147.410156 " fill-opacity="1" fill-rule="nonzero"/><path fill="#0070ae" d="M 193.925781 147.410156 L 219.710938 147.410156 L 219.710938 173.179688 L 193.925781 173.179688 Z M 193.925781 147.410156 " fill-opacity="1" fill-rule="nonzero"/><path fill="#0070ae" d="M 344.707031 245.109375 C 338.699219 250 332.386719 254.359375 325.820312 258.058594 C 319.226562 261.730469 312.433594 264.746094 305.460938 267.078125 C 298.511719 269.433594 291.386719 271.003906 284.238281 271.917969 C 269.9375 273.765625 255.5625 272.574219 241.847656 268.902344 C 240.984375 268.699219 240.148438 268.421875 239.285156 268.167969 L 236.726562 267.40625 C 235.886719 267.128906 235.050781 266.824219 234.214844 266.546875 C 233.378906 266.242188 232.542969 265.988281 231.703125 265.660156 L 229.21875 264.671875 C 228.382812 264.339844 227.546875 264.0625 226.734375 263.683594 L 224.300781 262.617188 L 223.085938 262.085938 C 222.679688 261.910156 222.246094 261.679688 221.84375 261.503906 C 220.195312 260.691406 218.519531 259.957031 216.871094 259.097656 L 214.386719 257.828125 C 213.550781 257.425781 212.738281 256.941406 211.902344 256.511719 L 209.417969 255.195312 L 206.910156 253.800781 C 206.070312 253.34375 205.234375 252.890625 204.398438 252.40625 L 201.886719 250.964844 C 198.515625 249.0625 195.117188 247.085938 191.695312 245.109375 L 186.472656 242.144531 C 184.699219 241.15625 182.949219 240.171875 181.148438 239.207031 C 173.949219 235.332031 166.417969 231.554688 158.40625 228.4375 C 157.390625 228.058594 156.429688 227.628906 155.390625 227.273438 L 152.320312 226.210938 C 150.292969 225.472656 148.1875 224.890625 146.109375 224.285156 L 144.539062 223.828125 L 142.992188 223.421875 C 141.953125 223.167969 140.910156 222.890625 139.871094 222.664062 C 137.792969 222.207031 135.714844 221.726562 133.585938 221.34375 C 131.480469 220.914062 129.375 220.636719 127.246094 220.28125 L 124.050781 219.875 C 123.519531 219.824219 122.988281 219.722656 122.453125 219.671875 L 120.855469 219.519531 C 119.792969 219.417969 118.726562 219.316406 117.664062 219.242188 L 114.46875 219.039062 C 113.402344 218.964844 112.339844 218.964844 111.246094 218.9375 L 109.652344 218.886719 C 109.117188 218.886719 108.585938 218.886719 108.054688 218.886719 C 106.988281 218.886719 105.921875 218.886719 104.832031 218.914062 L 101.640625 219.039062 C 100.574219 219.0625 99.507812 219.164062 98.445312 219.242188 C 97.378906 219.34375 96.3125 219.394531 95.25 219.519531 C 90.988281 219.949219 86.78125 220.660156 82.597656 221.546875 L 79.480469 222.257812 C 78.972656 222.382812 78.441406 222.511719 77.933594 222.664062 L 76.386719 223.09375 C 74.332031 223.625 72.328125 224.285156 70.300781 224.941406 C 66.296875 226.285156 62.390625 227.882812 58.585938 229.605469 C 54.785156 231.378906 51.109375 233.355469 47.535156 235.484375 C 43.984375 237.660156 40.585938 240.042969 37.339844 242.578125 C 34.09375 245.160156 31.054688 247.921875 28.214844 250.863281 C 25.425781 253.851562 22.8125 256.96875 20.558594 260.3125 C 23.878906 258.007812 27.199219 255.878906 30.621094 253.929688 C 34.046875 252.003906 37.542969 250.304688 41.066406 248.734375 C 44.617188 247.214844 48.21875 245.871094 51.816406 244.65625 C 55.445312 243.488281 59.09375 242.449219 62.769531 241.589844 C 66.449219 240.753906 70.148438 240.042969 73.851562 239.484375 C 77.550781 238.980469 81.230469 238.597656 84.90625 238.394531 C 92.28125 238.042969 99.609375 238.296875 106.886719 239.183594 C 110.511719 239.636719 114.136719 240.195312 117.714844 240.957031 C 119.511719 241.308594 121.289062 241.742188 123.0625 242.121094 C 124.835938 242.578125 126.613281 243.007812 128.363281 243.539062 C 130.136719 244.019531 131.859375 244.578125 133.609375 245.109375 C 134.472656 245.390625 135.335938 245.695312 136.222656 245.972656 L 137.515625 246.402344 L 138.78125 246.882812 C 140.457031 247.519531 142.128906 248.101562 143.777344 248.835938 L 146.261719 249.875 C 147.097656 250.230469 147.910156 250.632812 148.746094 250.988281 C 155.363281 254.027344 161.90625 257.601562 168.523438 261.425781 L 173.515625 264.339844 L 178.5625 267.332031 C 181.960938 269.332031 185.410156 271.359375 188.933594 273.386719 C 190.707031 274.398438 192.457031 275.386719 194.28125 276.375 L 196.996094 277.847656 L 199.757812 279.289062 C 200.695312 279.773438 201.585938 280.253906 202.546875 280.710938 L 205.386719 282.078125 C 207.261719 283.015625 209.242188 283.875 211.167969 284.738281 C 211.648438 284.941406 212.132812 285.167969 212.636719 285.371094 L 214.160156 285.980469 L 217.203125 287.195312 C 218.214844 287.625 219.257812 287.957031 220.269531 288.308594 L 223.363281 289.375 C 224.402344 289.703125 225.46875 290.007812 226.507812 290.3125 C 227.546875 290.617188 228.613281 290.945312 229.652344 291.222656 L 232.84375 292.007812 C 233.910156 292.261719 234.976562 292.542969 236.039062 292.742188 C 240.324219 293.605469 244.660156 294.339844 249.019531 294.71875 L 252.292969 295.023438 C 253.382812 295.074219 254.472656 295.125 255.5625 295.175781 C 257.742188 295.304688 259.949219 295.253906 262.128906 295.253906 C 262.6875 295.253906 263.21875 295.253906 263.777344 295.226562 L 265.425781 295.152344 L 268.695312 294.972656 C 269.785156 294.898438 270.875 294.769531 271.96875 294.667969 L 273.589844 294.519531 C 274.121094 294.46875 274.679688 294.417969 275.210938 294.316406 L 278.433594 293.832031 L 280.054688 293.582031 L 281.652344 293.25 L 284.847656 292.59375 C 285.378906 292.492188 285.910156 292.339844 286.445312 292.210938 L 288.015625 291.804688 C 289.054688 291.527344 290.121094 291.300781 291.160156 290.996094 L 294.253906 290.03125 L 295.800781 289.550781 L 297.320312 289.019531 L 300.363281 287.929688 C 300.871094 287.753906 301.378906 287.550781 301.859375 287.320312 L 303.355469 286.6875 C 304.34375 286.257812 305.332031 285.878906 306.320312 285.421875 L 309.238281 284.027344 L 310.683594 283.320312 C 311.164062 283.089844 311.621094 282.8125 312.101562 282.558594 C 319.683594 278.582031 326.730469 273.765625 333.070312 268.269531 C 339.410156 262.746094 345.035156 256.5625 349.828125 249.875 C 354.644531 243.210938 358.675781 236.089844 361.695312 228.640625 C 356.394531 234.722656 350.714844 240.21875 344.707031 245.109375 Z M 344.707031 245.109375 " fill-opacity="1" fill-rule="nonzero"/><g clip-path="url(#006cc84222)"><path fill="#00b7ee" d="M 249.605469 310.632812 C 228.789062 313.519531 203.816406 299.203125 176.304688 283.140625 C 126.765625 254.207031 67.691406 221.675781 0.300781 288.589844 C 0.171875 288.714844 0.324219 288.917969 0.476562 288.816406 C 11.605469 281.847656 24.03125 276.554688 36.480469 272.523438 C 51.3125 267.738281 66.929688 264.925781 82.546875 265.40625 C 101.738281 265.988281 117.6875 272.425781 134.242188 281.597656 C 162.082031 296.976562 192.683594 313.851562 225.289062 315.445312 C 231.703125 315.75 238.421875 315.421875 244.558594 313.316406 C 245.851562 312.863281 248.566406 311.417969 249.65625 310.808594 C 249.78125 310.757812 249.730469 310.632812 249.605469 310.632812 Z M 249.605469 310.632812 " fill-opacity="1" fill-rule="nonzero"/></g><g clip-path="url(#eaece7627d)"><path fill="#00b7ee" d="M 70.707031 164.515625 L 70.707031 216.023438 C 72.609375 215.414062 74.511719 214.78125 76.4375 214.277344 L 77.984375 213.84375 C 78.492188 213.691406 79.023438 213.566406 79.53125 213.441406 L 82.648438 212.730469 C 86.804688 211.84375 91.039062 211.132812 95.300781 210.703125 C 96.1875 210.601562 97.050781 210.527344 97.9375 210.476562 L 97.9375 143.585938 L 191.265625 71.804688 L 284.59375 143.585938 L 284.59375 263.023438 C 291.617188 262.113281 298.640625 260.566406 305.460938 258.234375 C 307.589844 257.527344 309.695312 256.742188 311.796875 255.902344 L 311.796875 164.515625 L 330.203125 178.675781 L 374.828125 178.675781 L 287.710938 111.6875 L 287.710938 125.242188 L 282.816406 125.242188 L 282.816406 65.699219 L 250.164062 65.699219 L 250.164062 82.800781 L 191.265625 37.5 L 7.703125 178.675781 L 52.324219 178.675781 Z M 70.707031 164.515625 " fill-opacity="1" fill-rule="nonzero"/></g><g transform="matrix(1, 0, 0, 1, 150, 260)"><g clip-path="url(#0a3bd7e70b)"><g fill="#000000" fill-opacity="1"><g transform="translate(1.197042, 17.736444)"><g><path d="M 7.453125 0 L 7.453125 -5.703125 C 7.453125 -6.421875 7.285156 -6.957031 6.953125 -7.3125 C 6.628906 -7.664062 6.117188 -7.84375 5.421875 -7.84375 C 4.492188 -7.84375 3.816406 -7.585938 3.390625 -7.078125 C 2.960938 -6.578125 2.75 -5.753906 2.75 -4.609375 L 2.75 0 L 1.421875 0 L 1.421875 -12.515625 L 2.75 -12.515625 L 2.75 -8.71875 C 2.75 -8.269531 2.726562 -7.894531 2.6875 -7.59375 L 2.765625 -7.59375 C 3.023438 -8.007812 3.394531 -8.335938 3.875 -8.578125 C 4.363281 -8.828125 4.921875 -8.953125 5.546875 -8.953125 C 6.628906 -8.953125 7.4375 -8.695312 7.96875 -8.1875 C 8.507812 -7.675781 8.78125 -6.863281 8.78125 -5.75 L 8.78125 0 Z M 7.453125 0 "/></g></g></g><g fill="#000000" fill-opacity="1"><g transform="translate(16.333908, 17.736444)"><g><path d="M 9.015625 -4.421875 C 9.015625 -2.984375 8.648438 -1.859375 7.921875 -1.046875 C 7.203125 -0.242188 6.207031 0.15625 4.9375 0.15625 C 4.144531 0.15625 3.441406 -0.0234375 2.828125 -0.390625 C 2.222656 -0.765625 1.753906 -1.296875 1.421875 -1.984375 C 1.085938 -2.679688 0.921875 -3.492188 0.921875 -4.421875 C 0.921875 -5.847656 1.28125 -6.960938 2 -7.765625 C 2.71875 -8.566406 3.71875 -8.96875 5 -8.96875 C 6.226562 -8.96875 7.203125 -8.554688 7.921875 -7.734375 C 8.648438 -6.921875 9.015625 -5.816406 9.015625 -4.421875 Z M 2.3125 -4.421875 C 2.3125 -3.285156 2.535156 -2.421875 2.984375 -1.828125 C 3.429688 -1.242188 4.09375 -0.953125 4.96875 -0.953125 C 5.84375 -0.953125 6.503906 -1.242188 6.953125 -1.828125 C 7.410156 -2.421875 7.640625 -3.285156 7.640625 -4.421875 C 7.640625 -5.535156 7.410156 -6.382812 6.953125 -6.96875 C 6.503906 -7.550781 5.835938 -7.84375 4.953125 -7.84375 C 4.078125 -7.84375 3.414062 -7.554688 2.96875 -6.984375 C 2.53125 -6.410156 2.3125 -5.554688 2.3125 -4.421875 Z M 2.3125 -4.421875 "/></g></g></g><g fill="#000000" fill-opacity="1"><g transform="translate(31.309894, 17.736444)"><g><path d="M 12.65625 0 L 12.65625 -5.734375 C 12.65625 -6.429688 12.503906 -6.957031 12.203125 -7.3125 C 11.898438 -7.664062 11.429688 -7.84375 10.796875 -7.84375 C 9.960938 -7.84375 9.347656 -7.601562 8.953125 -7.125 C 8.554688 -6.644531 8.359375 -5.910156 8.359375 -4.921875 L 8.359375 0 L 7.03125 0 L 7.03125 -5.734375 C 7.03125 -6.429688 6.878906 -6.957031 6.578125 -7.3125 C 6.273438 -7.664062 5.804688 -7.84375 5.171875 -7.84375 C 4.335938 -7.84375 3.722656 -7.59375 3.328125 -7.09375 C 2.941406 -6.59375 2.75 -5.769531 2.75 -4.625 L 2.75 0 L 1.421875 0 L 1.421875 -8.8125 L 2.5 -8.8125 L 2.71875 -7.609375 L 2.78125 -7.609375 C 3.03125 -8.035156 3.382812 -8.367188 3.84375 -8.609375 C 4.300781 -8.847656 4.816406 -8.96875 5.390625 -8.96875 C 6.765625 -8.96875 7.664062 -8.472656 8.09375 -7.484375 L 8.15625 -7.484375 C 8.414062 -7.941406 8.796875 -8.300781 9.296875 -8.5625 C 9.796875 -8.832031 10.363281 -8.96875 11 -8.96875 C 12 -8.96875 12.742188 -8.710938 13.234375 -8.203125 C 13.734375 -7.691406 13.984375 -6.875 13.984375 -5.75 L 13.984375 0 Z M 12.65625 0 "/></g></g></g><g fill="#000000" fill-opacity="1"><g transform="translate(51.659295, 17.736444)"><g><path d="M 5.140625 0.15625 C 3.835938 0.15625 2.804688 -0.238281 2.046875 -1.03125 C 1.296875 -1.820312 0.921875 -2.921875 0.921875 -4.328125 C 0.921875 -5.753906 1.269531 -6.882812 1.96875 -7.71875 C 2.675781 -8.550781 3.617188 -8.96875 4.796875 -8.96875 C 5.898438 -8.96875 6.769531 -8.601562 7.40625 -7.875 C 8.050781 -7.15625 8.375 -6.203125 8.375 -5.015625 L 8.375 -4.171875 L 2.3125 -4.171875 C 2.332031 -3.128906 2.585938 -2.335938 3.078125 -1.796875 C 3.578125 -1.265625 4.28125 -1 5.1875 -1 C 6.132812 -1 7.070312 -1.195312 8 -1.59375 L 8 -0.40625 C 7.53125 -0.207031 7.082031 -0.0664062 6.65625 0.015625 C 6.238281 0.109375 5.734375 0.15625 5.140625 0.15625 Z M 4.78125 -7.859375 C 4.070312 -7.859375 3.503906 -7.625 3.078125 -7.15625 C 2.660156 -6.695312 2.414062 -6.0625 2.34375 -5.25 L 6.953125 -5.25 C 6.953125 -6.09375 6.765625 -6.738281 6.390625 -7.1875 C 6.015625 -7.632812 5.476562 -7.859375 4.78125 -7.859375 Z M 4.78125 -7.859375 "/></g></g></g><g fill="#000000" fill-opacity="1"><g transform="translate(65.927406, 17.736444)"><g><path d="M 7.09375 -2.40625 C 7.09375 -1.582031 6.785156 -0.945312 6.171875 -0.5 C 5.566406 -0.0625 4.710938 0.15625 3.609375 0.15625 C 2.441406 0.15625 1.53125 -0.0234375 0.875 -0.390625 L 0.875 -1.625 C 1.300781 -1.414062 1.753906 -1.25 2.234375 -1.125 C 2.722656 -1 3.191406 -0.9375 3.640625 -0.9375 C 4.335938 -0.9375 4.875 -1.046875 5.25 -1.265625 C 5.625 -1.492188 5.8125 -1.835938 5.8125 -2.296875 C 5.8125 -2.640625 5.660156 -2.929688 5.359375 -3.171875 C 5.066406 -3.410156 4.488281 -3.695312 3.625 -4.03125 C 2.800781 -4.34375 2.21875 -4.609375 1.875 -4.828125 C 1.53125 -5.054688 1.273438 -5.316406 1.109375 -5.609375 C 0.941406 -5.898438 0.859375 -6.25 0.859375 -6.65625 C 0.859375 -7.375 1.148438 -7.9375 1.734375 -8.34375 C 2.316406 -8.757812 3.117188 -8.96875 4.140625 -8.96875 C 5.085938 -8.96875 6.015625 -8.773438 6.921875 -8.390625 L 6.4375 -7.3125 C 5.550781 -7.675781 4.75 -7.859375 4.03125 -7.859375 C 3.40625 -7.859375 2.929688 -7.757812 2.609375 -7.5625 C 2.285156 -7.363281 2.125 -7.085938 2.125 -6.734375 C 2.125 -6.503906 2.179688 -6.304688 2.296875 -6.140625 C 2.421875 -5.972656 2.613281 -5.8125 2.875 -5.65625 C 3.144531 -5.507812 3.664062 -5.296875 4.4375 -5.015625 C 5.476562 -4.628906 6.179688 -4.242188 6.546875 -3.859375 C 6.910156 -3.472656 7.09375 -2.988281 7.09375 -2.40625 Z M 7.09375 -2.40625 "/></g></g></g></g></g></svg>